<?xml version="1.0" standalone="no"?>
<!DOCTYPE svg PUBLIC "-//W3C//DTD SVG 20010904//EN"
 "http://www.w3.org/TR/2001/REC-SVG-20010904/DTD/svg10.dtd">
<svg version="1.0" xmlns="http://www.w3.org/2000/svg"
 width="200.000000pt" height="200.000000pt" viewBox="0 0 200.000000 200.000000"
 preserveAspectRatio="xMidYMid meet">
<metadata>
Created by potrace 1.10, written by Peter Selinger 2001-2011
</metadata>
<g transform="translate(0.000000,200.000000) scale(0.100000,-0.100000)"
fill="#000000" stroke="none">
<path d="M1825 1874 c-55 -8 -143 -19 -195 -25 -52 -5 -131 -14 -175 -19 -44
-5 -195 -13 -335 -16 -261 -7 -455 2 -710 32 -331 39 -410 43 -410 21 0 -10
52 -19 193 -36 357 -43 461 -51 692 -57 307 -9 526 5 916 57 81 10 154 19 163
19 9 0 19 -13 25 -32 l9 -33 1 41 c2 69 -6 71 -174 48z"/>
<path d="M68 1793 c-10 -2 -21 -15 -24 -29 -4 -13 -16 -31 -28 -40 l-21 -15
25 3 c18 2 27 12 34 36 11 41 2 41 349 0 250 -29 298 -31 592 -31 319 -1 428
6 749 49 160 21 163 20 180 -20 10 -23 22 -35 38 -38 l23 -3 3 -678 c2 -639 1
-678 -15 -683 -34 -10 -48 -21 -52 -40 -5 -28 -17 -32 -74 -23 -74 11 -338 37
-502 49 -289 21 -625 9 -1019 -34 -253 -29 -263 -28 -280 27 -3 10 -15 17 -28
16 l-23 0 22 -11 c13 -6 23 -19 23 -28 0 -48 23 -49 390 -10 265 28 535 41
710 35 181 -7 480 -31 625 -50 151 -20 154 -20 166 13 5 15 23 35 39 44 l30
17 0 679 c0 701 0 702 -39 702 -9 0 -23 15 -31 33 -15 31 -17 32 -70 29 -30
-2 -125 -12 -210 -23 -386 -49 -848 -51 -1250 -5 -282 32 -311 35 -332 29z"/>
<path d="M1430 1164 c-12 -4 -15 -26 -15 -124 l0 -120 36 0 36 0 -5 118 c-3
69 -9 120 -16 124 -12 8 -12 8 -36 2z m30 -103 c0 -50 5 -93 10 -96 22 -14 10
-35 -21 -35 -28 0 -30 2 -25 28 9 41 10 123 2 160 -7 28 -5 32 13 32 20 0 21
-6 21 -89z"/>
<path d="M267 1149 c-42 -24 -61 -135 -34 -189 19 -38 60 -54 102 -40 26 8 35
17 35 33 0 12 3 39 6 60 l7 37 -42 0 c-36 0 -41 -3 -41 -23 0 -13 6 -29 13
-36 10 -10 8 -12 -8 -9 -36 6 -30 118 6 118 5 0 9 -7 9 -16 0 -10 7 -14 23
-12 29 4 37 56 11 75 -21 16 -62 16 -87 2z m91 -41 c4 -32 -14 -37 -34 -10
-22 29 -48 3 -52 -51 -3 -51 11 -87 34 -87 20 0 29 27 14 45 -16 19 -4 35 25
35 24 0 24 -2 18 -47 -3 -27 -11 -51 -17 -55 -22 -15 -73 -8 -91 12 -25 28
-26 126 -2 164 16 23 24 27 60 24 37 -3 42 -6 45 -30z"/>
<path d="M426 1129 c-22 -26 -26 -40 -26 -92 0 -34 6 -73 13 -86 17 -35 57
-45 100 -28 29 13 34 19 30 41 -5 22 -10 25 -42 23 l-36 -2 0 54 c0 35 5 56
13 59 6 2 12 -3 12 -12 0 -10 9 -16 24 -16 19 0 25 6 28 31 9 61 -71 81 -116
28z m102 -21 c2 -20 -1 -28 -12 -28 -9 0 -16 7 -16 15 0 8 -9 15 -20 15 -26 0
-43 -43 -36 -90 7 -42 27 -59 61 -52 18 3 25 0 25 -11 0 -32 -70 -37 -100 -7
-29 29 -28 127 1 164 17 22 28 27 58 24 31 -3 36 -7 39 -30z"/>
<path d="M565 1040 l0 -120 68 0 67 0 0 34 c0 19 -4 37 -8 40 -5 3 -4 35 1 70
13 92 10 96 -65 96 l-63 0 0 -120z m115 79 c0 -12 -8 -28 -17 -35 -24 -18 -33
-17 -33 2 0 10 6 14 15 10 8 -3 15 -1 15 4 0 6 -9 10 -20 10 -15 0 -20 -7 -20
-24 0 -30 16 -42 35 -26 13 10 15 8 15 -17 0 -27 -3 -30 -25 -25 -22 4 -25 1
-25 -27 0 -35 24 -43 46 -13 12 16 13 16 19 0 14 -35 -2 -48 -54 -48 -53 0
-70 12 -51 35 12 15 9 111 -5 153 -7 21 -5 22 49 22 51 0 56 -2 56 -21z"/>
<path d="M795 1139 c-4 -12 -2 -26 4 -32 14 -14 14 -112 1 -137 -17 -32 -2
-50 41 -50 30 0 39 4 39 18 1 16 1 16 11 0 6 -11 22 -18 39 -18 25 0 30 4 30
25 0 14 -4 25 -8 25 -5 0 -14 11 -20 25 -9 20 -8 30 6 54 33 59 -11 111 -95
111 -34 0 -43 -4 -48 -21z m123 -11 c16 -16 15 -74 -2 -90 -11 -11 -9 -19 10
-50 29 -46 30 -58 4 -58 -15 0 -26 13 -40 45 -11 25 -24 45 -30 45 -13 0 -13
-47 0 -55 21 -13 10 -35 -17 -35 l-28 0 0 105 0 105 46 0 c25 0 50 -5 57 -12z"/>
<path d="M850 1080 c0 -27 3 -31 23 -28 16 2 22 10 22 28 0 18 -6 26 -22 28
-20 3 -23 -1 -23 -28z"/>
<path d="M1518 1111 c-12 -23 -15 -45 -11 -93 3 -35 10 -71 15 -80 9 -19 53
-24 75 -10 16 10 5 52 -13 52 -9 0 -14 12 -14 35 0 24 5 35 15 35 9 0 15 9 15
25 0 16 -6 25 -15 25 -8 0 -15 9 -15 20 0 30 -32 24 -52 -9z m42 -11 c0 -11 7
-20 15 -20 8 0 15 -4 15 -10 0 -5 -6 -10 -14 -10 -16 0 -25 -39 -18 -76 3 -17
9 -23 19 -20 10 4 13 0 11 -12 -2 -9 -13 -18 -26 -20 -27 -4 -42 29 -39 87 2
23 -1 42 -5 43 -13 5 15 58 30 58 6 0 12 -9 12 -20z"/>
<path d="M991 1074 c-23 -29 -28 -92 -10 -125 15 -29 54 -41 84 -27 25 11 26
12 26 113 0 66 -61 89 -100 39z m87 -38 c3 -35 2 -36 -32 -36 -20 0 -36 -4
-36 -9 0 -17 29 -33 50 -26 18 6 21 3 18 -12 -2 -13 -12 -18 -38 -18 -28 0
-37 5 -48 28 -28 59 12 136 62 118 15 -6 22 -18 24 -45z"/>
<path d="M1020 1045 c-10 -12 -9 -16 5 -21 23 -9 40 10 22 25 -11 9 -17 8 -27
-4z"/>
<path d="M1123 1074 c-13 -20 -14 -32 -6 -53 6 -17 6 -34 0 -48 -13 -31 -3
-49 30 -56 28 -5 62 7 75 27 11 16 10 64 -2 71 -6 4 -6 15 1 32 13 34 -4 53
-47 53 -25 0 -38 -7 -51 -26z m87 -14 c0 -23 -10 -26 -28 -8 -9 9 -15 9 -24 0
-8 -8 -5 -13 13 -21 36 -13 52 -37 45 -66 -10 -40 -87 -49 -94 -11 -3 15 1 17
26 11 37 -8 53 11 20 24 -39 15 -53 38 -40 66 9 20 19 25 47 25 28 0 35 -4 35
-20z"/>
<path d="M1246 1092 c-3 -5 -2 -42 3 -82 9 -87 22 -101 89 -94 26 2 49 8 53
12 4 4 4 44 2 90 l-6 82 -34 0 -34 0 7 -60 c5 -42 3 -60 -5 -60 -7 0 -11 22
-11 60 0 60 0 60 -29 60 -17 0 -32 -4 -35 -8z m54 -67 c4 -44 9 -60 20 -60 12
0 15 13 15 60 0 49 3 60 18 63 15 3 17 -5 17 -55 0 -33 5 -64 11 -70 20 -20 0
-31 -53 -29 l-53 1 -3 55 c-2 30 -8 60 -13 67 -14 16 -2 35 19 31 13 -2 18
-18 22 -63z"/>
<path d="M1637 1085 c-11 -10 -15 -36 -15 -86 1 -67 2 -71 27 -80 52 -20 106
34 84 84 -6 13 -9 36 -6 51 4 18 1 31 -8 37 -22 14 -66 11 -82 -6z m83 -21 c0
-17 -23 -31 -28 -16 -5 17 -32 15 -32 -3 0 -8 8 -15 18 -15 10 0 23 -5 30 -12
17 -17 15 -63 -2 -77 -22 -18 -70 -10 -74 12 -3 16 1 18 26 12 44 -9 49 12 7
29 -35 15 -46 44 -27 72 15 25 82 23 82 -2z"/>
<path d="M595 265 c-71 -7 -175 -18 -230 -24 -55 -6 -160 -16 -232 -23 -118
-10 -133 -13 -133 -30 0 -25 37 -24 307 7 385 43 485 48 811 42 284 -5 429
-16 687 -48 55 -7 120 -13 145 -13 l45 -1 3 45 c2 31 0 41 -7 30 -5 -8 -7 -18
-5 -22 11 -18 -29 -19 -147 -4 -305 39 -443 48 -774 51 -232 2 -381 -1 -470
-10z"/>
</g>
</svg>
